<?xml version="1.0" encoding="utf-8"?>
<!-- Generator: Adobe Illustrator 27.0.0, SVG Export Plug-In . SVG Version: 6.00 Build 0)  -->
<svg version="1.1" id="SajadiDev_Logo" xmlns="http://www.w3.org/2000/svg" xmlns:xlink="http://www.w3.org/1999/xlink" x="0px"
	 y="0px" viewBox="0 0 750 750" style="enable-background:new 0 0 750 750;" xml:space="preserve">
<style type="text/css">
	.st0{fill:#3f2305;}
</style>
<path class="st0" d="M25,500h350c55.2,0,100-44.8,100-100v-26.8c-29.4,17-63.6,26.8-100,26.8H175V200C175,89.5,264.5,0,375,0
	C167.9,0,0,167.9,0,375c0,43.9,7.5,86,21.4,125.1C22.6,500.1,23.8,500,25,500z"/>
<path class="st0" d="M630,100H375c-55.2,0-100,44.8-100,100v100h100c55.2,0,100-44.8,100-100h100v200c0,110.5-89.5,200-200,200H75
	c68.4,91.1,177.3,150,300,150c-27.6,0-50-22.4-50-50s22.4-50,50-50s50,22.4,50,50s-22.4,50-50,50c207.1,0,375-167.9,375-375
	C750,266.4,703.8,168.5,630,100z"/>
</svg>
