<?xml version="1.0" encoding="UTF-8"?>
<svg id="Layer_2" data-name="Layer 2" xmlns="http://www.w3.org/2000/svg" viewBox="0 0 387.78 328.33">
  <defs>
    <style>
      .cls-1 {
        fill: #f0f0f0;
      }

      .cls-2, .cls-3, .cls-4, .cls-5, .cls-6, .cls-7, .cls-8, .cls-9, .cls-10 {
        fill: #fff;
      }

      .cls-3 {
        opacity: .8;
      }

      .cls-3, .cls-4, .cls-5, .cls-6, .cls-11, .cls-12, .cls-13, .cls-8, .cls-14, .cls-9, .cls-10 {
        isolation: isolate;
      }

      .cls-15, .cls-16 {
        fill: #f5f5f5;
      }

      .cls-17 {
        stroke: #3f2305;
        stroke-width: .5px;
      }

      .cls-17, .cls-13 {
        fill: none;
      }

      .cls-17, .cls-13, .cls-16 {
        stroke-linecap: round;
        stroke-linejoin: round;
      }

      .cls-18 {
        fill: #ebb376;
      }

      .cls-4 {
        opacity: .3;
      }

      .cls-19, .cls-12, .cls-13, .cls-7, .cls-9 {
        opacity: .2;
      }

      .cls-20 {
        fill: #e0e0e0;
      }

      .cls-21 {
        fill: #de5753;
      }

      .cls-5 {
        opacity: .7;
      }

      .cls-22 {
        fill: #dfd7bf;
      }

      .cls-23 {
        fill: #3f2305;
      }

      .cls-11, .cls-8 {
        opacity: .4;
      }

      .cls-13 {
        stroke: #000;
      }

      .cls-24 {
        fill: #ebebeb;
      }

      .cls-25 {
        fill: #6d4e32;
      }

      .cls-14 {
        opacity: .1;
      }

      .cls-26 {
        fill: #e4897b;
      }

      .cls-27 {
        fill: #263238;
      }

      .cls-16 {
        stroke: #dfd7bf;
        stroke-width: 2px;
      }

      .cls-10 {
        opacity: .6;
      }
    </style>
  </defs>
  <g id="Background_Complete" data-name="Background Complete">
    <g>
      <g>
        <rect class="cls-1" x="214.65" y="83.72" width="135.3" height="198.38" transform="translate(564.6 365.81) rotate(180)"/>
        <g>
          <rect class="cls-20" x="219.43" y="89.96" width="125.74" height="36.64" transform="translate(564.6 216.56) rotate(180)"/>
          <rect class="cls-24" x="338.03" y="95.89" width="7.14" height="30.71" transform="translate(683.19 222.49) rotate(180)"/>
          <rect class="cls-24" x="303.49" y="95.89" width="7.14" height="30.71" transform="translate(614.12 222.49) rotate(180)"/>
          <rect class="cls-24" x="261.62" y="95.51" width="7.14" height="30.71" transform="translate(507.7 265.15) rotate(-170.22)"/>
          <rect class="cls-24" x="329.18" y="99.94" width="7.14" height="26.66" transform="translate(665.49 226.54) rotate(180)"/>
          <rect class="cls-24" x="312.76" y="99.94" width="7.14" height="26.66" transform="translate(632.66 226.54) rotate(180)"/>
          <rect class="cls-24" x="271.32" y="99.94" width="7.14" height="26.66" transform="translate(549.78 226.54) rotate(180)"/>
          <rect class="cls-24" x="291.13" y="99.48" width="7.14" height="26.66" transform="translate(557.92 286.86) rotate(-167.47)"/>
          <rect class="cls-24" x="323" y="94.37" width="3.57" height="32.23" transform="translate(649.57 220.97) rotate(180)"/>
          <rect class="cls-24" x="280.51" y="94.37" width="3.57" height="32.23" transform="translate(564.6 220.97) rotate(180)"/>
        </g>
        <g>
          <rect class="cls-20" x="219.43" y="132.4" width="125.74" height="36.64"/>
          <rect class="cls-24" x="219.43" y="138.33" width="7.14" height="30.71"/>
          <rect class="cls-24" x="253.97" y="138.33" width="7.14" height="30.71"/>
          <rect class="cls-24" x="295.84" y="137.95" width="7.14" height="30.71" transform="translate(-21.69 53.07) rotate(-9.78)"/>
          <rect class="cls-24" x="228.28" y="142.38" width="7.14" height="26.66"/>
          <rect class="cls-24" x="244.7" y="142.38" width="7.14" height="26.66"/>
          <rect class="cls-24" x="286.14" y="142.38" width="7.14" height="26.66"/>
          <rect class="cls-24" x="266.33" y="141.92" width="7.14" height="26.66" transform="translate(-27.25 62.23) rotate(-12.53)"/>
          <rect class="cls-24" x="238.03" y="136.81" width="3.57" height="32.23"/>
          <rect class="cls-24" x="280.51" y="136.81" width="3.57" height="32.23"/>
          <rect class="cls-24" x="338.03" y="138.33" width="7.14" height="30.71" transform="translate(683.19 307.37) rotate(180)"/>
          <rect class="cls-24" x="329.18" y="142.38" width="7.14" height="26.66" transform="translate(665.49 311.42) rotate(180)"/>
          <rect class="cls-24" x="312.76" y="142.38" width="7.14" height="26.66" transform="translate(632.66 311.42) rotate(180)"/>
          <rect class="cls-24" x="323" y="136.81" width="3.57" height="32.23" transform="translate(649.57 305.84) rotate(180)"/>
        </g>
        <g>
          <rect class="cls-20" x="219.43" y="174.84" width="125.74" height="36.64" transform="translate(564.6 386.32) rotate(180)"/>
          <g>
            <rect class="cls-24" x="265.86" y="180.77" width="7.14" height="30.71" transform="translate(538.85 392.25) rotate(180)"/>
            <rect class="cls-24" x="223.99" y="180.39" width="7.14" height="30.71" transform="translate(418.57 427.28) rotate(-170.22)"/>
            <rect class="cls-24" x="291.54" y="184.82" width="7.14" height="26.66" transform="translate(590.23 396.29) rotate(180)"/>
            <rect class="cls-24" x="275.13" y="184.82" width="7.14" height="26.66" transform="translate(557.39 396.29) rotate(180)"/>
            <rect class="cls-24" x="233.69" y="184.82" width="7.14" height="26.66" transform="translate(474.51 396.29) rotate(180)"/>
            <rect class="cls-24" x="253.5" y="184.36" width="7.14" height="26.66" transform="translate(465.14 446.43) rotate(-167.47)"/>
            <rect class="cls-24" x="285.37" y="179.25" width="3.57" height="32.23" transform="translate(574.3 390.72) rotate(180)"/>
            <rect class="cls-24" x="242.88" y="179.25" width="3.57" height="32.23" transform="translate(489.33 390.72) rotate(180)"/>
            <rect class="cls-24" x="306.16" y="180.39" width="7.14" height="30.71" transform="translate(581.73 441.24) rotate(-170.22)"/>
            <rect class="cls-24" x="315.86" y="184.82" width="7.14" height="26.66" transform="translate(638.87 396.29) rotate(180)"/>
            <rect class="cls-24" x="335.67" y="184.36" width="7.14" height="26.66" transform="translate(627.53 464.26) rotate(-167.47)"/>
            <rect class="cls-24" x="325.06" y="179.25" width="3.57" height="32.23" transform="translate(653.69 390.72) rotate(180)"/>
          </g>
        </g>
        <rect class="cls-22" x="349.95" y="83.72" width="23.34" height="198.89"/>
      </g>
      <g>
        <path class="cls-22" d="m48.31,41.01s-1.17-7.73,4.46-12.68c5.64-4.95,5.14-7.9,3.53-8.29-1.61-.38-3.1,4.57-5.57,5.93,0,0-.08-7.06,2.44-9.66,2.52-2.6,3.84-9.3,1.44-9.42-2.39-.12-2.64,3.98-3.14,6.88-.5,2.91-3.16,6.99-3.16,6.99,0,0-.52-6.32-2.15-8.92-1.63-2.6,2.71-8.55,1.04-11.15-1.67-2.6-4.64,2.35-4.4,7.93.25,5.57,3.96,11.52,3.1,17.34,0,0-1.64-4.09-3.11-4.46-1.47-.37-2.96-3.07-3.95-4.08-.99-1-2.23,2.47,0,5.69,2.23,3.22,7.93,11.83,7.06,18.8l2.41-.92Z"/>
        <path class="cls-22" d="m51.68,37.5l1.85,11.58c.57,3.58-2.19,6.81-5.81,6.81h-1.97c-3.62,0-6.38-3.24-5.81-6.81l1.85-11.58h9.91Z"/>
        <rect class="cls-22" x="23.77" y="51.62" width="130.44" height="6.7" transform="translate(177.97 109.93) rotate(180)"/>
        <rect class="cls-22" x="142.46" y="26.91" width="5.75" height="24.7" transform="translate(290.66 78.53) rotate(180)"/>
        <rect class="cls-22" x="114.67" y="26.91" width="5.75" height="24.7" transform="translate(235.08 78.53) rotate(180)"/>
        <rect class="cls-22" x="80.98" y="26.6" width="5.75" height="24.7" transform="translate(159.88 91.59) rotate(-170.22)"/>
        <rect class="cls-22" x="135.33" y="30.17" width="5.75" height="21.45" transform="translate(276.42 81.78) rotate(180)"/>
        <rect class="cls-22" x="122.13" y="30.17" width="5.75" height="21.45" transform="translate(250 81.78) rotate(180)"/>
        <rect class="cls-22" x="88.79" y="30.17" width="5.75" height="21.45" transform="translate(183.32 81.78) rotate(180)"/>
        <rect class="cls-22" x="104.73" y="29.8" width="5.75" height="21.45" transform="translate(203.85 103.42) rotate(-167.47)"/>
        <rect class="cls-22" x="130.37" y="25.69" width="2.87" height="25.93" transform="translate(263.6 77.3) rotate(180)"/>
        <rect class="cls-22" x="96.18" y="25.69" width="2.87" height="25.93" transform="translate(195.24 77.3) rotate(180)"/>
      </g>
      <g>
        <rect class="cls-22" x="23.77" y="101.65" width="130.44" height="6.7"/>
        <rect class="cls-22" x="29.77" y="76.94" width="5.75" height="24.7"/>
        <rect class="cls-22" x="57.56" y="76.94" width="5.75" height="24.7"/>
        <rect class="cls-22" x="91.24" y="76.64" width="5.75" height="24.7" transform="translate(-13.75 17.28) rotate(-9.78)"/>
        <rect class="cls-22" x="36.89" y="80.2" width="5.75" height="21.45"/>
        <rect class="cls-22" x="50.1" y="80.2" width="5.75" height="21.45"/>
        <rect class="cls-22" x="83.44" y="80.2" width="5.75" height="21.45"/>
        <rect class="cls-22" x="67.5" y="79.83" width="5.75" height="21.45" transform="translate(-17.97 17.42) rotate(-12.53)"/>
        <rect class="cls-22" x="44.73" y="75.72" width="2.87" height="25.93"/>
        <rect class="cls-22" x="78.91" y="75.72" width="2.87" height="25.93"/>
        <rect class="cls-22" x="113.69" y="82.1" width="28" height="19.33"/>
      </g>
      <g>
        <circle class="cls-22" cx="289.56" cy="21.3" r="19.53"/>
        <circle class="cls-15" cx="289.56" cy="21.3" r="16.61"/>
        <polyline class="cls-16" points="288.78 9.9 288.78 21.51 281.08 17.16"/>
      </g>
    </g>
  </g>
  <g id="Shadow">
    <ellipse id="_Path_" data-name="&amp;lt;Path&amp;gt;" class="cls-15" cx="193.89" cy="317.01" rx="193.89" ry="11.32"/>
  </g>
  <g id="Screen">
    <g>
      <rect class="cls-23" x="167.38" y="28.45" width="199.02" height="188.44"/>
      <rect class="cls-5" x="167.38" y="28.45" width="199.02" height="188.44"/>
      <rect class="cls-23" x="167.38" y="28.45" width="199.02" height="9.59"/>
      <rect class="cls-12" x="359.82" y="38.05" width="6.58" height="179.02"/>
      <rect class="cls-10" x="361.2" y="42.29" width="3.96" height="24.94" rx="1.68" ry="1.68"/>
      <line class="cls-13" x1="171.51" y1="161.27" x2="355.47" y2="161.27"/>
      <line class="cls-13" x1="171.51" y1="118.27" x2="355.47" y2="118.27"/>
      <rect class="cls-23" x="171.51" y="42.27" width="183.96" height="28.13"/>
      <path class="cls-10" d="m364.11,33.25c0,1.33-1.08,2.41-2.41,2.41s-2.41-1.08-2.41-2.41,1.08-2.41,2.41-2.41,2.41,1.08,2.41,2.41Z"/>
      <path class="cls-10" d="m355.61,33.25c0,1.33-1.08,2.41-2.41,2.41s-2.41-1.08-2.41-2.41,1.08-2.41,2.41-2.41,2.41,1.08,2.41,2.41Z"/>
      <path class="cls-10" d="m347.11,33.25c0,1.33-1.08,2.41-2.41,2.41s-2.41-1.08-2.41-2.41,1.08-2.41,2.41-2.41,2.41,1.08,2.41,2.41Z"/>
      <g>
        <g>
          <g>
            <path class="cls-11" d="m179.4,89.25c-3.25,0-5.89-2.64-5.89-5.89s2.64-5.89,5.89-5.89,5.89,2.64,5.89,5.89-2.64,5.89-5.89,5.89Z"/>
            <path class="cls-2" d="m180.12,81.12v4.46h-1.03v-3.64h-.89v-.83h1.93Z"/>
          </g>
          <g>
            <rect class="cls-11" x="189.69" y="77.65" width="158.97" height="2.99" rx="1.14" ry="1.14"/>
            <rect class="cls-11" x="189.69" y="85.42" width="158.97" height="2.99" rx="1.14" ry="1.14"/>
            <rect class="cls-11" x="189.69" y="93.18" width="104.77" height="2.99" rx="1.14" ry="1.14"/>
          </g>
          <g>
            <g>
              <g>
                <circle class="cls-12" cx="192.42" cy="108.08" r="2.73"/>
                <path class="cls-2" d="m194.31,108.08c0,1.04-.84,1.89-1.89,1.89s-1.89-.84-1.89-1.89.84-1.89,1.89-1.89,1.89.84,1.89,1.89Z"/>
              </g>
              <rect class="cls-11" x="200.21" y="106.59" width="28.74" height="2.99" rx="1.14" ry="1.14"/>
            </g>
            <g>
              <g>
                <path class="cls-12" d="m250.63,108.02c0,1.51-1.22,2.73-2.73,2.73s-2.73-1.22-2.73-2.73,1.22-2.73,2.73-2.73,2.73,1.22,2.73,2.73Z"/>
                <path class="cls-23" d="m249.79,108.02c0,1.04-.84,1.89-1.89,1.89s-1.89-.84-1.89-1.89.84-1.89,1.89-1.89,1.89.84,1.89,1.89Z"/>
              </g>
              <rect class="cls-11" x="255.69" y="106.53" width="28.75" height="2.99" rx="1.14" ry="1.14"/>
            </g>
            <g>
              <g>
                <path class="cls-12" d="m306.11,107.96c0,1.51-1.22,2.73-2.73,2.73s-2.73-1.22-2.73-2.73,1.22-2.73,2.73-2.73,2.73,1.22,2.73,2.73Z"/>
                <path class="cls-2" d="m305.27,107.96c0,1.04-.84,1.89-1.89,1.89s-1.89-.84-1.89-1.89.84-1.89,1.89-1.89,1.89.84,1.89,1.89Z"/>
              </g>
              <rect class="cls-11" x="311.17" y="106.46" width="28.74" height="2.99" rx="1.14" ry="1.14"/>
            </g>
          </g>
        </g>
        <g>
          <g>
            <circle class="cls-11" cx="179.4" cy="133.18" r="5.89"/>
            <path class="cls-2" d="m181.1,134.61v.84h-3.37v-.67l1.72-1.63c.4-.38.47-.61.47-.82,0-.35-.24-.56-.71-.56-.38,0-.71.15-.93.45l-.75-.48c.34-.5.97-.83,1.77-.83,1,0,1.66.51,1.66,1.32,0,.43-.12.83-.75,1.41l-1.03.97h1.92Z"/>
          </g>
          <g>
            <rect class="cls-11" x="189.69" y="127.5" width="158.97" height="2.99" rx="1.14" ry="1.14"/>
            <rect class="cls-11" x="189.69" y="135.26" width="32.06" height="2.99" rx="1.14" ry="1.14"/>
          </g>
          <g>
            <g>
              <g>
                <circle class="cls-12" cx="192.42" cy="150.04" r="2.73"/>
                <circle class="cls-2" cx="192.42" cy="150.04" r="1.89"/>
              </g>
              <rect class="cls-11" x="200.21" y="148.55" width="28.74" height="2.99" rx="1.14" ry="1.14"/>
            </g>
            <g>
              <g>
                <circle class="cls-12" cx="247.9" cy="149.98" r="2.73"/>
                <circle class="cls-2" cx="247.9" cy="149.98" r="1.89"/>
              </g>
              <rect class="cls-11" x="255.69" y="148.48" width="28.75" height="2.99" rx="1.14" ry="1.14"/>
            </g>
            <g>
              <g>
                <path class="cls-12" d="m306.11,149.92c0,1.51-1.22,2.73-2.73,2.73s-2.73-1.22-2.73-2.73,1.22-2.73,2.73-2.73,2.73,1.22,2.73,2.73Z"/>
                <path class="cls-23" d="m305.27,149.92c0,1.04-.84,1.89-1.89,1.89s-1.89-.84-1.89-1.89.84-1.89,1.89-1.89,1.89.84,1.89,1.89Z"/>
              </g>
              <rect class="cls-11" x="311.17" y="148.42" width="28.74" height="2.99" rx="1.14" ry="1.14"/>
            </g>
          </g>
        </g>
        <g>
          <g>
            <path class="cls-11" d="m179.4,182.33c-3.25,0-5.89-2.64-5.89-5.89s2.64-5.89,5.89-5.89,5.89,2.64,5.89,5.89-2.64,5.89-5.89,5.89Z"/>
            <path class="cls-2" d="m181.06,177.27c0,.75-.58,1.44-1.85,1.44-.63,0-1.27-.17-1.7-.48l.4-.79c.34.25.81.4,1.28.4.52,0,.84-.21.84-.57,0-.34-.25-.55-.84-.55h-.47v-.68l.92-1.04h-1.9v-.83h3.13v.67l-1.01,1.15c.8.13,1.21.62,1.21,1.28Z"/>
          </g>
          <g>
            <rect class="cls-11" x="189.69" y="170.71" width="158.97" height="2.99" rx="1.14" ry="1.14"/>
            <rect class="cls-11" x="189.69" y="178.48" width="158.97" height="2.99" rx="1.14" ry="1.14"/>
            <rect class="cls-11" x="189.69" y="186.24" width="80.77" height="2.99" rx="1.14" ry="1.14"/>
          </g>
          <g>
            <g>
              <rect class="cls-11" x="245.17" y="198.61" width="5.46" height="5.46" rx=".4" ry=".4"/>
              <rect class="cls-6" x="245.83" y="199.27" width="4.15" height="4.15" transform="translate(449.24 -46.56) rotate(90)"/>
              <rect class="cls-11" x="255.69" y="199.85" width="28.75" height="2.99" rx="1.14" ry="1.14"/>
              <polyline class="cls-17" points="246.64 201.34 247.68 202.29 249.3 200.37"/>
            </g>
            <g>
              <path class="cls-11" d="m301.05,198.55h4.66c.22,0,.4.18.4.4v4.66c0,.22-.18.4-.4.4h-4.66c-.22,0-.4-.18-.4-.4v-4.66c0-.22.18-.4.4-.4Z"/>
              <rect class="cls-6" x="301.31" y="199.21" width="4.15" height="4.15" transform="translate(504.66 -102.1) rotate(90)"/>
              <rect class="cls-11" x="311.17" y="199.78" width="28.74" height="2.99" rx="1.14" ry="1.14"/>
              <polyline class="cls-17" points="302.12 201.28 303.16 202.23 304.78 200.31"/>
            </g>
            <g>
              <rect class="cls-11" x="189.69" y="198.67" width="5.46" height="5.46" rx=".4" ry=".4"/>
              <rect class="cls-6" x="190.35" y="199.33" width="4.15" height="4.15" transform="translate(393.83 8.98) rotate(90)"/>
              <rect class="cls-11" x="200.21" y="199.91" width="28.74" height="2.99" rx="1.14" ry="1.14"/>
            </g>
          </g>
        </g>
      </g>
      <g>
        <path class="cls-2" d="m180.34,55.45c0-2.08,1.62-3.61,3.82-3.61s3.82,1.53,3.82,3.61-1.63,3.61-3.82,3.61-3.82-1.54-3.82-3.61Zm6.01,0c0-1.33-.94-2.24-2.19-2.24s-2.19.91-2.19,2.24.94,2.24,2.19,2.24,2.19-.91,2.19-2.24Z"/>
        <path class="cls-2" d="m194.57,55.87v3.07h-1.56v-2.83c0-.87-.4-1.27-1.09-1.27-.75,0-1.29.46-1.29,1.45v2.65h-1.56v-5.37h1.49v.63c.42-.46,1.05-.71,1.78-.71,1.27,0,2.23.74,2.23,2.38Z"/>
        <path class="cls-2" d="m195.98,51.54h1.56v7.4h-1.56v-7.4Z"/>
        <path class="cls-2" d="m198.79,51.96c0-.49.39-.87.97-.87s.97.36.97.84c0,.52-.39.9-.97.9s-.97-.38-.97-.87Zm.19,1.62h1.56v5.37h-1.56v-5.37Z"/>
        <path class="cls-2" d="m207.47,55.87v3.07h-1.56v-2.83c0-.87-.4-1.27-1.09-1.27-.75,0-1.29.46-1.29,1.45v2.65h-1.56v-5.37h1.49v.63c.42-.46,1.05-.71,1.78-.71,1.27,0,2.23.74,2.23,2.38Z"/>
        <path class="cls-2" d="m214.16,56.7h-4.06c.15.67.72,1.08,1.54,1.08.57,0,.98-.17,1.35-.52l.83.9c-.5.57-1.25.87-2.22.87-1.86,0-3.06-1.17-3.06-2.76s1.23-2.76,2.86-2.76,2.79,1.06,2.79,2.78c0,.12-.02.29-.03.42Zm-4.08-.91h2.64c-.11-.68-.62-1.12-1.32-1.12s-1.22.43-1.33,1.12Z"/>
        <path class="cls-2" d="m219.6,53.27h-2.24v-1.32h6.09v1.32h-2.24v5.67h-1.62v-5.67Z"/>
        <path class="cls-2" d="m228.89,56.7h-4.06c.15.67.72,1.08,1.54,1.08.57,0,.98-.17,1.35-.52l.83.9c-.5.57-1.25.87-2.22.87-1.86,0-3.06-1.17-3.06-2.76s1.23-2.76,2.86-2.76,2.79,1.06,2.79,2.78c0,.12-.02.29-.03.42Zm-4.08-.91h2.64c-.11-.68-.62-1.12-1.32-1.12s-1.22.43-1.33,1.12Z"/>
        <path class="cls-2" d="m229.43,58.44l.52-1.12c.48.31,1.21.52,1.87.52.72,0,.99-.19.99-.49,0-.88-3.24.02-3.24-2.13,0-1.02.92-1.74,2.48-1.74.74,0,1.56.17,2.07.47l-.52,1.11c-.53-.3-1.06-.4-1.55-.4-.7,0-1,.22-1,.5,0,.92,3.24.03,3.24,2.15,0,1-.93,1.71-2.53,1.71-.91,0-1.83-.25-2.33-.58Z"/>
        <path class="cls-2" d="m238.71,58.68c-.32.23-.79.34-1.27.34-1.27,0-2.01-.65-2.01-1.93v-2.21h-.83v-1.2h.83v-1.31h1.56v1.31h1.34v1.2h-1.34v2.19c0,.46.25.71.67.71.23,0,.46-.07.63-.2l.42,1.1Z"/>
      </g>
      <g>
        <circle class="cls-2" cx="339.17" cy="56.45" r="7.93" transform="translate(59.42 256.37) rotate(-45)"/>
        <path class="cls-12" d="m346.19,52.75l-7.02,3.7v-7.93c3.04,0,5.69,1.71,7.02,4.23Z"/>
      </g>
    </g>
  </g>
  <g id="Plant">
    <g>
      <path class="cls-27" d="m324.28,300.55s4.32-20.42-3.55-31.49c-7.87-11.06,7.11-.13,8.84,10.23,0,0,2.58-18.52-5.05-31.54-7.63-13.03,6.65-2.33,7.86,11.09,0,0,2.34-16.52-1.17-25.8-3.51-9.28,2.59-3.31,4.94,2.51,2.35,5.82-.73,20.23-.73,20.23,0,0,6.12-26.64,11.92-24.52,5.8,2.12-8.66,19.58-10.67,28.66,0,0,6.83-12.22,12.02-9.68,5.18,2.54-8.03,3.81-14.08,22.03l-2.13,8.54s6.29-12.06,10.4-8.26c4.11,3.8-12.19,10.37-15.98,28.65l-2.62-.65Z"/>
      <path class="cls-27" d="m325.12,301.72s.91-25.75,13.63-36.65c12.72-10.91-8.48-2.27-13.63,9.62,0,0,2.42-22.95,15.45-36.28,13.03-13.33-7.27-4.77-12.72,10.94,0,0,2.12-20.48,9.09-30.56,6.97-10.07-2.12-4.74-6.66,1.53-4.54,6.27-5.15,24.45-5.15,24.45,0,0,.61-33.74-6.97-32.92-7.57.81,4.54,26.03,4.24,37.5,0,0-4.54-16.67-11.51-15.17s8.48,6.96,10.3,30.58v10.87s-3.94-16.32-10-12.99c-6.06,3.33,11.51,16.06,10.6,39.08h3.33Z"/>
      <path class="cls-9" d="m325.12,301.72s.91-25.75,13.63-36.65c12.72-10.91-8.48-2.27-13.63,9.62,0,0,2.42-22.95,15.45-36.28,13.03-13.33-7.27-4.77-12.72,10.94,0,0,2.12-20.48,9.09-30.56,6.97-10.07-2.12-4.74-6.66,1.53-4.54,6.27-5.15,24.45-5.15,24.45,0,0,.61-33.74-6.97-32.92-7.57.81,4.54,26.03,4.24,37.5,0,0-4.54-16.67-11.51-15.17s8.48,6.96,10.3,30.58v10.87s-3.94-16.32-10-12.99c-6.06,3.33,11.51,16.06,10.6,39.08h3.33Z"/>
      <path class="cls-23" d="m315.98,306.78h15.42c6.07,0,10.99,4.93,10.99,10.99v2.07h-37.41v-2.07c0-6.07,4.93-10.99,10.99-10.99Z" transform="translate(647.38 626.63) rotate(180)"/>
      <rect class="cls-23" x="300.09" y="299.24" width="47.2" height="11.7" rx="4.21" ry="4.21" transform="translate(647.38 610.18) rotate(180)"/>
      <rect class="cls-9" x="300.09" y="299.24" width="47.2" height="11.7" rx="4.21" ry="4.21" transform="translate(647.38 610.18) rotate(180)"/>
    </g>
  </g>
  <g id="Table">
    <g>
      <g>
        <path class="cls-27" d="m115.6,179.24c-.49,1.43.31,2.59,1.81,2.59h47.35c1.5,0,3.12-1.16,3.61-2.59l10.03-28.9c.1-.3.15-.58.15-.84-.01-1.02-.77-1.75-1.96-1.75h-47.35c-1.5,0-3.12,1.16-3.61,2.59l-10.03,28.9Z"/>
        <path class="cls-23" d="m165.12,180.38c.72,0,1.53-.58,1.77-1.27l10.03-28.9c.05-.13.07-.25.07-.36,0-.4-.29-.65-.75-.65h-47.35c-.72,0-1.53.58-1.77,1.27l-10.03,28.9c-.1.28-.08.55.05.73.09.13.27.28.63.28h47.35Z"/>
        <path class="cls-3" d="m165.12,180.38c.72,0,1.53-.58,1.77-1.27l10.03-28.9c.05-.13.07-.25.07-.36,0-.4-.29-.65-.75-.65h-47.35c-.72,0-1.53.58-1.77,1.27l-10.03,28.9c-.1.28-.08.55.05.73.09.13.27.28.63.28h47.35Z"/>
        <path class="cls-27" d="m95.33,179.69v1.34l9.38,2.4h59.83c.92,0,1.67-.74,1.67-1.67v-2.07h-70.88Z"/>
        <polygon class="cls-9" points="145.39 179.69 145.39 181.02 154.78 183.43 104.71 183.43 95.33 181.02 95.33 179.69 145.39 179.69"/>
        <g>
          <g class="cls-19">
            <polygon class="cls-23" points="173.91 155.99 126.03 155.99 127.9 150.77 175.77 150.77 173.91 155.99"/>
          </g>
          <g class="cls-14">
            <path d="m171.51,162.71h-47.87c-.14,0-.21-.12-.16-.26.05-.14.21-.26.34-.26h47.87c.14,0,.21.12.16.26-.05.14-.21.26-.34.26Z"/>
          </g>
          <g class="cls-14">
            <path d="m168.89,170.04h-47.87c-.14,0-.21-.12-.16-.26.05-.14.21-.26.34-.26h47.87c.14,0,.21.12.16.26-.05.14-.21.26-.34.26Z"/>
          </g>
          <g class="cls-14">
            <path d="m166.28,177.37h-47.87c-.14,0-.21-.12-.16-.26.05-.14.21-.26.34-.26h47.87c.14,0,.21.12.16.26-.05.14-.21.26-.34.26Z"/>
          </g>
        </g>
      </g>
      <g>
        <g>
          <polygon class="cls-27" points="150.36 319.73 155.57 319.73 164.94 189.3 158.02 189.3 150.36 319.73"/>
          <polygon class="cls-9" points="150.35 319.73 155.57 319.73 164.48 195.78 164.94 189.51 158.02 189.51 157.65 195.78 150.35 319.73"/>
          <polygon class="cls-12" points="157.65 195.47 164.48 195.47 164.94 189.51 158.02 189.51 157.65 195.47"/>
        </g>
        <g>
          <polygon class="cls-27" points="112.09 319.73 117.3 319.73 118.15 189.3 111.24 189.3 112.09 319.73"/>
          <polygon class="cls-4" points="111.23 189.51 111.37 210.55 112.08 319.73 117.3 319.73 118.02 210.55 118.15 189.51 111.23 189.51"/>
          <polygon class="cls-12" points="111.23 189.51 111.37 210.79 118.02 210.79 118.15 189.51 111.23 189.51"/>
        </g>
        <g>
          <polygon class="cls-27" points="56.73 319.73 61.94 319.73 71.31 189.3 64.39 189.3 56.73 319.73"/>
          <polygon class="cls-4" points="56.72 319.73 61.94 319.73 70.85 195.78 71.31 189.51 64.39 189.51 64.02 195.78 56.72 319.73"/>
          <polygon class="cls-12" points="64.02 195.47 70.85 195.47 71.31 189.51 64.39 189.51 64.02 195.47"/>
        </g>
        <g>
          <polygon class="cls-27" points="210.01 319.73 215.22 319.73 207.56 189.3 200.64 189.3 210.01 319.73"/>
          <polygon class="cls-4" points="200.64 189.51 201.1 195.78 210.01 319.73 215.22 319.73 207.93 195.78 207.56 189.51 200.64 189.51"/>
          <polygon class="cls-12" points="207.56 189.51 200.64 189.51 201.1 195.47 207.93 195.47 207.56 189.51"/>
        </g>
        <path class="cls-23" d="m61.07,186.03h149.8c1.19,0,2.16.97,2.16,2.16v4.37H58.91v-4.37c0-1.19.97-2.16,2.16-2.16Z" transform="translate(271.95 378.6) rotate(180)"/>
        <rect class="cls-12" x="58.91" y="186.03" width="154.13" height="3.27" transform="translate(271.95 375.33) rotate(180)"/>
        <path class="cls-23" d="m55.68,186.88h160.59c1.02,0,1.84-.82,1.84-1.84h0c0-1.02-.82-1.84-1.84-1.84H55.68c-1.02,0-1.84.82-1.84,1.84h0c0,1.02.82,1.84,1.84,1.84Z"/>
      </g>
      <g>
        <path class="cls-27" d="m211.14,178.57c0,3.05-.85,4.63-.85,4.63h-36.59v-.87h.74v-7.53h-.74v-.87h36.59s.85,1.63.85,4.64Z"/>
        <path class="cls-9" d="m211.14,178.57c0,3.05-.85,4.63-.85,4.63h-36.59v-.87h.74v-7.53h-.74v-.87h36.59s.85,1.63.85,4.64Z"/>
        <path class="cls-12" d="m191.56,178.57c0,3.05-.85,4.63-.85,4.63h-17.01v-.87h.74v-7.53h-.74v-.87h17.01s.85,1.63.85,4.64Z"/>
        <path class="cls-3" d="m189.76,178.57c0,2.48-.69,3.76-.69,3.76h-14.63v-7.53h14.63s.69,1.33.69,3.77Z"/>
        <path class="cls-10" d="m205.18,178.57c0,3.05-.85,4.63-.85,4.63h-6.81s.85-1.58.85-4.63-.85-4.64-.85-4.64h6.81s.85,1.63.85,4.64Z"/>
      </g>
      <g>
        <path class="cls-23" d="m214.4,169.3c0,3.05-.85,4.63-.85,4.63h-36.59v-.87h.74v-7.53h-.74v-.87h36.59s.85,1.63.85,4.64Z"/>
        <path class="cls-12" d="m194.82,169.3c0,3.05-.85,4.63-.85,4.63h-17.01v-.87h.74v-7.53h-.74v-.87h17.01s.85,1.63.85,4.64Z"/>
        <path class="cls-3" d="m193.02,169.3c0,2.48-.69,3.76-.69,3.76h-14.63v-7.53h14.63s.69,1.33.69,3.77Z"/>
        <path class="cls-12" d="m208.44,169.3c0,3.05-.85,4.63-.85,4.63h-6.81s.85-1.58.85-4.63-.85-4.64-.85-4.64h6.81s.85,1.63.85,4.64Z"/>
      </g>
    </g>
  </g>
  <g id="Character">
    <g>
      <g id="_Group_" data-name="&amp;lt;Group&amp;gt;">
        <g>
          <polygon class="cls-18" points="91.64 297.44 88.42 312.34 80.79 312.21 83.98 297.44 91.64 297.44"/>
          <polygon class="cls-12" points="91.64 297.44 90.05 304.81 82.49 304.3 83.98 297.44 91.64 297.44"/>
        </g>
        <path class="cls-23" d="m89.57,311.96s.16.01.16.02c0,.03.17.05.19.07.01.02.01.04.03.05.02,0,.04,0,.06,0,.65.2,1.31.34,1.99.39.5.09,1.02-.01,1.45-.29.27-.24.38-.62.28-.98-.03-.23-.17-.43-.38-.53-.49-.22-1.37.06-2.12.39.47-.58.82-1.27.75-1.74-.05-.31-.34-.55-.65-.58-.27-.05-.63.02-.85.2-.8.69-.92,2.85-.92,2.98h0v.02Zm.82-.44c-.06.03-.11.06-.16.09.03-.72.17-1.93.64-2.33.1-.1.25-.15.39-.14h.09c.25.06.31.19.32.29.04.52-.63,1.54-1.28,2.1Zm.11.38c.92-.51,2.23-1.07,2.71-.84.1.05.17.15.18.26.06.22,0,.46-.17.62-.38.33-1.39.31-2.73-.05Z"/>
        <path class="cls-27" d="m89.39,311.03l-8.55-.53c-.3-.03-.56.18-.6.48,0,0,0,0,0,0l-.84,6.75c-.05.74.51,1.37,1.25,1.43,2.99.14,4.42.05,8.19.26,2.31.14,6.86.63,10.05.32,3.19-.31,2.8-3.45,1.42-3.6-3.26-.37-7.59-2.77-9.63-4.59-.36-.31-.81-.49-1.28-.52Z"/>
        <g>
          <polygon class="cls-18" points="136.31 297.44 133.09 312.34 125.45 312.21 128.65 297.44 136.31 297.44"/>
          <polygon class="cls-12" points="136.31 297.44 134.71 304.81 127.15 304.3 128.64 297.44 136.31 297.44"/>
        </g>
        <path class="cls-23" d="m134.23,311.96s.16.01.16.02c0,.03.17.05.19.07.01.02.01.04.03.05.02,0,.04,0,.06,0,.65.2,1.31.34,1.99.39.5.09,1.02-.01,1.45-.29.27-.24.38-.62.28-.98-.03-.23-.17-.43-.38-.53-.49-.22-1.37.06-2.12.39.47-.58.82-1.27.75-1.74-.05-.31-.34-.55-.65-.58-.27-.05-.63.02-.85.2-.8.69-.92,2.85-.92,2.98h0v.02Zm.82-.44c-.06.03-.11.06-.16.09.03-.72.16-1.93.64-2.33.1-.1.25-.15.39-.14h.09c.25.06.31.19.32.29.04.52-.63,1.54-1.28,2.1Zm.11.38c.92-.51,2.23-1.07,2.71-.84.1.05.17.15.18.26.06.22,0,.46-.17.62-.38.33-1.39.31-2.73-.05Z"/>
        <path class="cls-27" d="m134.05,311.03l-8.55-.53c-.3-.03-.56.18-.6.48,0,0,0,0,0,0l-.84,6.75c-.05.74.51,1.37,1.25,1.43,2.99.14,4.42.05,8.19.26,2.31.14,6.86.63,10.05.32,3.19-.31,2.8-3.45,1.42-3.6-3.26-.37-7.59-2.77-9.63-4.59-.36-.31-.81-.49-1.28-.52Z"/>
        <path class="cls-23" d="m105.33,269.08c-5.04,19.15-11.13,32.86-11.13,32.86l-13.94-1.06s5.72-22.34,7.79-42.8c1.28-12.63,1.17-23.08-2.53-23.89-2.33-.51-7.77-.49-14.75-.33v-26c19.58,4.02,39.06,11.6,40.54,17.68,2.07,8.56-1.55,26.68-5.99,43.54Z"/>
        <path class="cls-8" d="m105.33,269.08c-5.04,19.15-11.13,32.86-11.13,32.86l-13.94-1.06s5.72-22.34,7.79-42.8c1.28-12.63,1.17-23.08-2.53-23.89-2.33-.51-7.77-.49-14.75-.33v-26c19.58,4.02,39.06,11.6,40.54,17.68,2.07,8.56-1.55,26.68-5.99,43.54Z"/>
        <path class="cls-12" d="m105.33,269.08c-5.21-3.3-11.3-7.17-17.28-11,1.28-12.63,1.17-23.08-2.53-23.89-2.33-.51-7.77-.49-14.75-.33v-26c19.58,4.02,39.06,11.6,40.54,17.68,2.07,8.56-1.55,26.68-5.99,43.54Z"/>
        <path class="cls-23" d="m97.71,205.3l1.23-9.87-39.9-6.57s-13.05,25.85-6.66,38.52c5.86,11.62,68.22,4.7,77.82,6.8,9.7,2.12-5.26,66.69-5.26,66.69l13.94,1.06s21.54-58.11,17.11-76.39c-1.93-7.98-34.8-18.54-58.27-20.24Z"/>
        <path class="cls-10" d="m97.71,205.3l1.23-9.87-39.9-6.57s-13.05,25.85-6.66,38.52c5.86,11.62,68.22,4.7,77.82,6.8,9.7,2.12-5.26,66.69-5.26,66.69l13.94,1.06s21.54-58.11,17.11-76.39c-1.93-7.98-34.8-18.54-58.27-20.24Z"/>
        <g>
          <path class="cls-27" d="m119.66,125.01c-.34.59-.3,1.26.09,1.48.39.22.97-.08,1.31-.67s.3-1.25-.08-1.48c-.38-.23-.95.11-1.32.67Z"/>
          <path class="cls-27" d="m119.03,121.82c-.08-.03-.15-.1-.19-.18-.09-.2,0-.44.21-.53,1.18-.54,2.55-.47,3.67.18.18.11.24.35.13.53,0,0-.01.02-.02.02-.13.18-.37.23-.56.11h0c-.89-.5-1.97-.55-2.9-.12-.11.04-.23.03-.34-.03Z"/>
          <path class="cls-21" d="m120.22,124.25c-.33,2.22-.35,4.48-.07,6.71-1.64.37-3.15-1.1-3.15-1.1l3.21-5.62Z"/>
          <path class="cls-26" d="m116.64,132.61c-.24.29-.48.58-.73.83-1.52,1.58-3.43,2.58-5.43,2.98-.52.11-1.05.18-1.59.21-2.8.14-5.6-.86-7.56-3.03-.81-.87-1.48-1.96-1.95-3.24-1.86-5.02.04-8.97,2.71-15.92.55-1.5,1.44-2.86,2.62-3.95,4.1-3.84,10.55-3.62,14.38.48,5.42,5.71,1.77,16.2-2.45,21.63Z"/>
          <path class="cls-12" d="m110.48,136.42c-.52.11-1.05.18-1.59.21-2.8.14-5.6-.86-7.56-3.03,1.07-1.09,2.25-1.75,2.25-1.75,0,0,4.33,1.21,6.9,4.57Z"/>
          <path class="cls-26" d="m87.94,136.68c.68,4.9,11.39,6.73,11.39,6.73,0,0,5.28,2.4,5.5.31-2.18-2.53-2.43-4.73-1.67-6.67.44-1.13,1.22-2.15,2.15-3.11.48-.51,1.02-.98,1.56-1.44l-3.26-13.4c-2.35,5.09-10.39,16.86-15.66,17.58Z"/>
          <path class="cls-27" d="m118.48,107.19s2.29-.28,4.04,3.98c1.48,3.59-2,4.37-1.85,8.19.15,3.82-3.34,5.94-3.34,5.94,0,0-2.93,2.53-5.43,1.16,0,0-3.26,1.6-4.12,4.39-.86,2.79-5.91-2.25-10.46-1.49,0,0-3.08-2.88-2.85-9.86.15-4.61,2.19-8.76,2.19-8.76,0,0,1.33-4.16,6.53-6.48,5.2-2.32,14.3-.56,15.28,2.93Z"/>
          <path class="cls-26" d="m111.28,124.39c-.26,1.66.06,3.1.89,4.03,1.11,1.21,2.9-.32,3.62-2.45.63-1.89.84-4.85-.79-5.18-1.63-.33-3.38,1.57-3.73,3.61Z"/>
        </g>
        <path class="cls-23" d="m103.6,138.46s-4.37-4.15-10.46-4.87-8.09,4.87-8.09,4.87l17.94,3.63.61-3.63Z"/>
        <path class="cls-26" d="m100.55,176.33l7.31,1.09s2.48-.82,5.1-1.09c2.62-.28,5.65,0,5.65,0,0,0,3.31,1.24,3.31,4.41,0,0-7.72,2.07-10.68.83l-10.68-.83v-4.41Z"/>
        <path class="cls-12" d="m100.55,176.33l7.31,1.09s2.48-.82,5.1-1.09c2.62-.28,5.65,0,5.65,0,0,0,3.31,1.24,3.31,4.41,0,0-7.72,2.07-10.68.83l-10.68-.83v-4.41Z"/>
        <path class="cls-23" d="m112.43,140.73c-1.49,4.16-2.83,8.17-4.01,12.02-.75,2.38-1.44,4.71-2.08,6.96-.53,1.89-1.02,3.72-1.48,5.5-.22.86-.44,1.7-.65,2.54-1.15,4.61-2.08,8.81-2.81,12.51-2.19,11.02-2.71,17.63-2.71,17.63l-41.02-5.13c1.42-7.04,2.53-13.2,4.08-19.84.86-3.64,1.83-7.42,3.08-11.57.88-2.98,1.9-6.15,3.11-9.58,4.12-11.81,7.91-15.08,7.91-15.08,15.78-2.53,36.58,4.04,36.58,4.04Z"/>
        <path class="cls-26" d="m126.07,177.09l7.31,1.09s2.48-.82,5.1-1.09c2.62-.28,5.65,0,5.65,0,0,0,3.31,1.24,3.31,4.41,0,0-7.72,2.07-10.68.83l-10.68-.83v-4.41Z"/>
        <g>
          <polygon class="cls-23" points="78.79 301.53 95.38 302.63 97.83 295.46 79.54 294.6 78.79 301.53"/>
          <polygon class="cls-7" points="78.79 301.53 95.38 302.63 97.83 295.46 79.54 294.6 78.79 301.53"/>
        </g>
        <g>
          <polygon class="cls-23" points="123.45 301.53 140.05 302.63 142.49 295.46 124.2 294.6 123.45 301.53"/>
          <polygon class="cls-7" points="123.45 301.53 140.05 302.63 142.49 295.46 124.2 294.6 123.45 301.53"/>
        </g>
        <g>
          <polygon points="57.57 193.35 76.06 195.78 76.66 193.05 58.14 190.36 57.57 193.35"/>
          <polygon points="78.2 193.07 77.97 195.78 95.06 198.13 95.06 195.45 78.2 193.07"/>
          <polygon points="96.12 195.6 96.12 198.13 98.6 198.46 98.6 196.01 96.12 195.6"/>
        </g>
        <path class="cls-12" d="m108.42,152.75c-.75,2.38-1.44,4.71-2.08,6.96-.53,1.89-1.02,3.72-1.48,5.5-1.29-7,1.05-15.36,1.05-15.36l2.52,2.91Z"/>
        <path class="cls-26" d="m111.19,143.12c3.34.68,5.07,23.87,5.81,26.94.65,2.68,16.37,8.12,16.37,8.12v3.78s-17.4-1.22-21.46-2.88c-4.06-1.66-6.56-24.59-6.56-24.59l5.83-11.37Z"/>
        <g class="cls-12">
          <path class="cls-2" d="m112.43,140.73c-1.49,4.16-2.83,8.17-4.01,12.02-.75,2.38-1.44,4.71-2.08,6.96-.53,1.89-1.02,3.72-1.48,5.5-.22.86-.44,1.7-.65,2.54-1.15,4.61-2.08,8.81-2.81,12.51-2.19,11.02-2.71,17.63-2.71,17.63l-41.02-5.13c1.42-7.04,2.53-13.2,4.08-19.84.86-3.64,1.83-7.42,3.08-11.57.88-2.98,1.9-6.15,3.11-9.58,4.12-11.81,7.91-15.08,7.91-15.08,15.78-2.53,36.58,4.04,36.58,4.04Z"/>
        </g>
        <path class="cls-23" d="m112.43,140.72c3.06.95,4.58,20.98,4.58,20.98l-11.1,1.54-2.3-8.21s.92-3.88,2.24-7.96c1.91-5.89,6.59-6.34,6.59-6.34Z"/>
      </g>
      <g>
        <g>
          <path class="cls-27" d="m40.76,316.33c0-1.94-1.57-3.51-3.51-3.51s-3.51,1.57-3.51,3.51,1.57,3.51,3.51,3.51,3.51-1.57,3.51-3.51Z"/>
          <path class="cls-9" d="m40.76,316.33c0-1.94-1.57-3.51-3.51-3.51s-3.51,1.57-3.51,3.51,1.57,3.51,3.51,3.51,3.51-1.57,3.51-3.51Z"/>
          <path class="cls-27" d="m125.37,316.33c0-1.94-1.57-3.51-3.51-3.51s-3.51,1.57-3.51,3.51,1.57,3.51,3.51,3.51,3.51-1.57,3.51-3.51Z"/>
          <path class="cls-9" d="m125.37,316.33c0-1.94-1.57-3.51-3.51-3.51s-3.51,1.57-3.51,3.51,1.57,3.51,3.51,3.51,3.51-1.57,3.51-3.51Z"/>
          <path class="cls-7" d="m39,316.33c0-.97-.79-1.76-1.76-1.76s-1.76.79-1.76,1.76.79,1.76,1.76,1.76,1.76-.79,1.76-1.76Z"/>
          <circle class="cls-7" cx="121.85" cy="316.33" r="1.76"/>
        </g>
        <path class="cls-27" d="m82.46,300.91v-37.81h-5.82v37.81c-22.64.58-36.4,8.5-39.16,10.23-.32.2-.51.56-.51.94v3.14c0,.61.5,1.11,1.11,1.11h0c.4,0,.77-.21.97-.56l1.34-2.36s15.58-5.55,36.25-6v6.21c0,.79.64,1.44,1.44,1.44h2.94c.79,0,1.44-.64,1.44-1.44v-6.21c20.67.45,36.25,6,36.25,6l1.34,2.36c.2.35.57.56.97.56h0c.61,0,1.11-.5,1.11-1.11v-3.14c0-.38-.19-.73-.51-.94-2.75-1.74-16.51-9.65-39.16-10.23Z"/>
        <path class="cls-12" d="m82.46,300.91v-37.81h-5.82v37.81c-22.64.58-36.4,8.5-39.16,10.23-.32.2-.51.56-.51.94v3.14c0,.61.5,1.11,1.11,1.11h0c.4,0,.77-.21.97-.56l1.34-2.36s15.58-5.55,36.25-6v6.21c0,.79.64,1.44,1.44,1.44h2.94c.79,0,1.44-.64,1.44-1.44v-6.21c20.67.45,36.25,6,36.25,6l1.34,2.36c.2.35.57.56.97.56h0c.61,0,1.11-.5,1.11-1.11v-3.14c0-.38-.19-.73-.51-.94-2.75-1.74-16.51-9.65-39.16-10.23Z"/>
        <rect class="cls-27" x="77.64" y="312.81" width="3.82" height="7.03" rx=".77" ry=".77"/>
        <rect class="cls-9" x="77.64" y="312.81" width="3.82" height="7.03" rx=".77" ry=".77"/>
        <path class="cls-25" d="m41.44,225.88h76.23c4.37,0,7.91,3.55,7.91,7.91v4.78H33.52v-4.78c0-4.37,3.55-7.91,7.91-7.91Z"/>
        <path class="cls-27" d="m66.35,194.46h50.68c2.61,0,4.54,2.43,3.95,4.97l-9.06,39.15h-2.09l7.72-34.31c.57-2.53-1.36-4.94-3.95-4.94h-46.21l-1.03-4.86Z"/>
        <path class="cls-27" d="m85.53,239.94v33.08c0,1.07-.87,1.92-1.92,1.92h-8.11c-1.07,0-1.92-.86-1.92-1.92v-33.08h11.96Z"/>
        <rect class="cls-12" x="73.57" y="239.94" width="11.96" height="13.74"/>
        <path class="cls-27" d="m128.09,236.54v3.95c0,1.12-.91,2.02-2.03,2.02H33.03c-1.12,0-2.02-.9-2.02-2.02v-3.95c0-1.11.9-2.02,2.02-2.02h93.03c1.12,0,2.03.91,2.03,2.02Z"/>
        <path class="cls-27" d="m85.29,238.58H31.01s-17.25-28.68-17.25-76.07v-17.4c0-7.15,5.8-12.95,12.96-12.95h23.02c7.01,0,12.75,5.57,12.95,12.58.67,24.42,4.26,77.29,22.6,93.84Z"/>
        <path class="cls-7" d="m73.35,238.58h-39.88c-1.54,0-2.96-.85-3.67-2.22-3.93-7.57-16.03-34.14-16.03-73.85v-17.4c0-7.15,5.8-12.95,12.95-12.95h19.89c7.01,0,12.75,5.57,12.95,12.58.6,21.81,3.53,66.34,17.22,87.39,1.81,2.78-.11,6.45-3.43,6.45Z"/>
        <path class="cls-12" d="m128.09,236.54v3.95c0,1.11-.9,2.02-2.02,2.02h-41.69c-1.51,0-2.73-1.22-2.73-2.73v-2.53c0-1.51,1.22-2.73,2.73-2.73h41.68c1.12,0,2.03.91,2.03,2.02Z"/>
      </g>
    </g>
  </g>
</svg>